<?xml version="1.0" encoding="UTF-8" standalone="no"?>
<!-- Created with Inkscape (http://www.inkscape.org/) -->

<svg
   version="1.1"
   id="svg235"
   width="1066.6667"
   height="1066.6667"
   viewBox="0 0 1066.6667 1066.6667"
   sodipodi:docname="black-friday-seal-pdv.svg"
   inkscape:version="1.2 (dc2aedaf03, 2022-05-15)"
   xmlns:inkscape="http://www.inkscape.org/namespaces/inkscape"
   xmlns:sodipodi="http://sodipodi.sourceforge.net/DTD/sodipodi-0.dtd"
   xmlns="http://www.w3.org/2000/svg"
   xmlns:svg="http://www.w3.org/2000/svg">
  <defs
     id="defs239">
    <clipPath
       clipPathUnits="userSpaceOnUse"
       id="clipPath251">
      <path
         d="M 0,0 H 800 V 800 H 0 Z"
         id="path249" />
    </clipPath>
    <radialGradient
       fx="0"
       fy="0"
       cx="0"
       cy="0"
       r="1"
       gradientUnits="userSpaceOnUse"
       gradientTransform="matrix(560.16803,0,0,-560.16803,400,400)"
       spreadMethod="pad"
       id="radialGradient263">
      <stop
         style="stop-opacity:1;stop-color:#414042"
         offset="0"
         id="stop257" />
      <stop
         style="stop-opacity:1;stop-color:#414042"
         offset="0.181481"
         id="stop259" />
      <stop
         style="stop-opacity:1;stop-color:#000000"
         offset="1"
         id="stop261" />
    </radialGradient>
    <clipPath
       clipPathUnits="userSpaceOnUse"
       id="clipPath273">
      <path
         d="M 127.213,400 C 127.213,249.344 249.344,127.213 400,127.213 v 0 c 150.656,0 272.787,122.131 272.787,272.787 v 0 c 0,150.656 -122.131,272.787 -272.787,272.787 v 0 C 249.344,672.787 127.213,550.656 127.213,400"
         id="path271" />
    </clipPath>
    <radialGradient
       fx="0"
       fy="0"
       cx="0"
       cy="0"
       r="1"
       gradientUnits="userSpaceOnUse"
       gradientTransform="matrix(382.01651,0,0,-382.01651,400,400)"
       spreadMethod="pad"
       id="radialGradient285">
      <stop
         style="stop-opacity:1;stop-color:#414042"
         offset="0"
         id="stop279" />
      <stop
         style="stop-opacity:1;stop-color:#414042"
         offset="0.181481"
         id="stop281" />
      <stop
         style="stop-opacity:1;stop-color:#000000"
         offset="1"
         id="stop283" />
    </radialGradient>
    <clipPath
       clipPathUnits="userSpaceOnUse"
       id="clipPath295">
      <path
         d="M 0,800 H 800 V 0 H 0 Z"
         id="path293" />
    </clipPath>
  </defs>
  <sodipodi:namedview
     id="namedview237"
     pagecolor="#ffffff"
     bordercolor="#000000"
     borderopacity="0.25"
     inkscape:showpageshadow="2"
     inkscape:pageopacity="0.0"
     inkscape:pagecheckerboard="0"
     inkscape:deskcolor="#d1d1d1"
     showgrid="false"
     inkscape:zoom="0.7846874"
     inkscape:cx="533.3334"
     inkscape:cy="533.97059"
     inkscape:window-width="1920"
     inkscape:window-height="1017"
     inkscape:window-x="-8"
     inkscape:window-y="-8"
     inkscape:window-maximized="1"
     inkscape:current-layer="g243">
    <inkscape:page
       x="0"
       y="0"
       id="page241"
       width="1066.6667"
       height="1066.6667" />
  </sodipodi:namedview>
  <g
     id="g243"
     inkscape:groupmode="layer"
     inkscape:label="Page 1"
     transform="matrix(1.3333333,0,0,-1.3333333,0,1066.6667)">
    <g
       id="g245">
      <g
         id="g247"
         clip-path="url(#clipPath251)">
        <g
           id="g253">
          <g
             id="g255">
            <path
               d="M 0,0 H 800 V 800 H 0 Z"
               style="fill:url(#radialGradient263);stroke:none"
               id="path265" />
          </g>
        </g>
      </g>
    </g>
    <g
       id="g267">
      <g
         id="g269"
         clip-path="url(#clipPath273)">
        <g
           id="g275">
          <g
             id="g277">
            <path
               d="M 127.213,400 C 127.213,249.344 249.344,127.213 400,127.213 v 0 c 150.656,0 272.787,122.131 272.787,272.787 v 0 c 0,150.656 -122.131,272.787 -272.787,272.787 v 0 C 249.344,672.787 127.213,550.656 127.213,400"
               style="fill:url(#radialGradient285);stroke:none"
               id="path287" />
          </g>
        </g>
      </g>
    </g>
    <g
       id="g289">
      <g
         id="g291"
         clip-path="url(#clipPath295)">
        <g
           id="g297"
           transform="translate(421.0371,418.8467)">
          <path
             d="m 0,0 v 20.735 l -2.98,3.02 c -0.381,0.381 -0.381,0.762 0,1.143 L 0,27.919 v 20.735 l -3.47,3.469 c -0.245,0.272 -0.3,0.571 -0.163,0.898 0.136,0.327 0.381,0.49 0.735,0.49 h 22.041 c 0.353,0 0.598,-0.163 0.734,-0.49 0.136,-0.327 0.082,-0.626 -0.163,-0.898 l -3.47,-3.469 V 34.123 l 15.389,16.939 -1.062,1.061 c -0.245,0.272 -0.299,0.571 -0.163,0.898 0.136,0.327 0.381,0.49 0.735,0.49 h 22.816 c 0.354,0 0.599,-0.163 0.734,-0.49 0.137,-0.327 0.082,-0.612 -0.163,-0.857 L 34.693,30.327 54.816,-3.632 c 0.164,-0.273 0.177,-0.545 0.041,-0.817 -0.164,-0.272 -0.408,-0.408 -0.735,-0.408 H 34.408 c -0.354,0 -0.612,0.163 -0.775,0.49 -0.137,0.353 -0.068,0.653 0.204,0.898 L 35.143,-2.163 23.306,17.796 16.244,10 V 0 l 3.47,-3.469 c 0.245,-0.245 0.299,-0.545 0.163,-0.898 -0.136,-0.327 -0.381,-0.49 -0.734,-0.49 H -2.898 c -0.354,0 -0.599,0.163 -0.735,0.49 -0.137,0.353 -0.082,0.653 0.163,0.898 z m -61.43,23.755 c -0.381,0.381 -0.381,0.762 0,1.143 L -58.328,28 c 0.844,6.585 3.605,12.231 8.286,16.939 5.714,5.687 12.598,8.531 20.653,8.531 8.082,0 14.966,-2.844 20.654,-8.531 L -20.205,33.47 c -2.53,2.53 -5.592,3.796 -9.184,3.796 -3.591,0 -6.653,-1.266 -9.183,-3.796 -1.715,-1.715 -2.858,-3.755 -3.429,-6.123 l 2.449,-2.449 c 0.381,-0.381 0.381,-0.762 0,-1.143 l -2.449,-2.448 c 0.571,-2.395 1.714,-4.45 3.429,-6.164 2.53,-2.53 5.592,-3.796 9.183,-3.796 3.592,0 6.654,1.266 9.184,3.796 L -8.735,3.674 c -5.688,-5.688 -12.572,-8.531 -20.654,-8.531 -8.055,0 -14.939,2.843 -20.653,8.531 -4.681,4.707 -7.442,10.367 -8.286,16.979 z M -97.267,19.47 h 10.123 l -4.979,13.143 z m -27.755,-24.327 c -0.354,0 -0.599,0.163 -0.734,0.49 -0.137,0.353 -0.082,0.653 0.163,0.898 l 3.224,3.224 8.898,22.776 -1.224,1.224 c -0.382,0.381 -0.382,0.762 0,1.143 l 3.51,3.511 8.531,21.837 -1.837,1.877 c -0.273,0.272 -0.34,0.571 -0.204,0.898 0.135,0.327 0.394,0.49 0.775,0.49 h 23.143 c 0.381,0 0.639,-0.163 0.776,-0.49 0.136,-0.327 0.067,-0.626 -0.204,-0.898 l -1.429,-1.469 8.653,-22.817 2.939,-2.939 c 0.381,-0.381 0.381,-0.762 0,-1.143 l -0.979,-1.02 8.775,-23.061 3.143,-3.143 c 0.245,-0.245 0.299,-0.545 0.163,-0.898 -0.136,-0.327 -0.381,-0.49 -0.734,-0.49 h -19.47 c -0.354,0 -0.599,0.163 -0.735,0.49 -0.136,0.353 -0.081,0.653 0.164,0.898 l 0.938,0.939 -2.204,5.796 h -22.612 l -2,-5.184 1.551,-1.551 c 0.272,-0.245 0.326,-0.545 0.163,-0.898 -0.137,-0.327 -0.381,-0.49 -0.735,-0.49 z M -181.144,0 v 20.735 l -2.98,3.02 c -0.381,0.381 -0.381,0.762 0,1.143 l 2.98,3.021 v 20.735 l -3.47,3.469 c -0.245,0.272 -0.3,0.571 -0.163,0.898 0.136,0.327 0.381,0.49 0.735,0.49 h 22.041 c 0.353,0 0.598,-0.163 0.734,-0.49 0.136,-0.327 0.082,-0.626 -0.163,-0.898 l -3.469,-3.469 V 27.919 l 2.979,-3.021 c 0.381,-0.381 0.381,-0.762 0,-1.143 l -2.979,-3.02 v -9.388 h 30.776 l 2.326,2.327 c 0.163,0.163 0.367,0.204 0.612,0.122 0.218,-0.081 0.327,-0.245 0.327,-0.489 V -4.857 h -53.184 c -0.354,0 -0.599,0.163 -0.735,0.49 -0.137,0.353 -0.082,0.653 0.163,0.898 z m -42.899,10.857 h 15.225 c 0.816,0 1.523,0.327 2.122,0.98 0.572,0.626 0.857,1.388 0.857,2.285 0,0.898 -0.285,1.66 -0.857,2.287 -0.599,0.625 -1.306,0.938 -2.122,0.938 h -15.225 z m 0,20.45 h 15.225 c 0.816,0 1.523,0.312 2.122,0.938 0.572,0.626 0.857,1.388 0.857,2.286 0,0.898 -0.285,1.659 -0.857,2.286 -0.599,0.653 -1.306,0.979 -2.122,0.979 h -15.225 z M -240.165,0 v 20.735 l -2.98,3.02 c -0.381,0.381 -0.381,0.762 0,1.143 l 2.98,3.021 v 20.735 l -3.47,3.469 c -0.245,0.272 -0.3,0.571 -0.163,0.898 0.136,0.327 0.381,0.49 0.735,0.49 h 34.53 c 5.143,0 9.537,-1.823 13.184,-5.469 3.646,-3.647 5.47,-8.042 5.47,-13.185 0,-3.836 -1.089,-7.346 -3.265,-10.53 2.176,-3.184 3.265,-6.694 3.265,-10.531 0,-5.143 -1.824,-9.537 -5.47,-13.184 -3.647,-3.646 -8.041,-5.469 -13.184,-5.469 h -34.53 c -0.354,0 -0.599,0.163 -0.735,0.49 -0.137,0.353 -0.082,0.653 0.163,0.898 z"
             style="fill:#ffffff;fill-opacity:1;fill-rule:nonzero;stroke:none"
             id="path299" />
        </g>
        <g
           id="g301"
           transform="translate(580.9941,378.2002)">
          <path
             d="m 0,0 c -0.164,0.272 -0.164,0.544 0,0.816 0.163,0.273 0.394,0.409 0.693,0.409 h 19.674 c 0.354,0 0.612,-0.164 0.776,-0.49 0.135,-0.327 0.067,-0.627 -0.205,-0.898 l -1.346,-1.347 6.775,-11.837 6.817,11.837 -1.347,1.347 c -0.272,0.271 -0.341,0.571 -0.204,0.898 0.136,0.326 0.393,0.49 0.775,0.49 h 19.673 c 0.3,0 0.531,-0.136 0.694,-0.409 0.163,-0.272 0.163,-0.544 0,-0.816 L 34.489,-31.755 v -20.571 l 3.429,-3.429 c 0.272,-0.245 0.34,-0.545 0.204,-0.897 -0.137,-0.327 -0.394,-0.491 -0.775,-0.491 H 15.388 c -0.355,0 -0.6,0.164 -0.736,0.491 -0.135,0.352 -0.081,0.652 0.164,0.897 l 3.469,3.429 v 20.571 z m -25.307,-32.815 h 10.123 l -4.979,13.142 z m -27.755,-24.328 c -0.353,0 -0.598,0.164 -0.734,0.491 -0.137,0.352 -0.082,0.652 0.163,0.897 l 3.225,3.225 8.897,22.775 -1.223,1.225 c -0.382,0.381 -0.382,0.761 0,1.142 l 3.509,3.511 8.531,21.837 -1.836,1.877 c -0.273,0.271 -0.341,0.571 -0.204,0.898 0.135,0.326 0.393,0.49 0.775,0.49 h 23.143 c 0.381,0 0.639,-0.164 0.775,-0.49 0.136,-0.327 0.067,-0.627 -0.204,-0.898 l -1.429,-1.469 8.653,-22.816 2.94,-2.94 c 0.38,-0.381 0.38,-0.761 0,-1.142 l -0.981,-1.021 8.777,-23.061 3.142,-3.143 c 0.246,-0.245 0.299,-0.545 0.164,-0.897 -0.137,-0.327 -0.381,-0.491 -0.735,-0.491 h -19.47 c -0.353,0 -0.598,0.164 -0.734,0.491 C -8.055,-56.3 -8,-56 -7.755,-55.755 l 0.939,0.939 -2.205,5.795 h -22.612 l -2,-5.183 1.551,-1.551 c 0.272,-0.245 0.327,-0.545 0.164,-0.897 -0.137,-0.327 -0.382,-0.491 -0.735,-0.491 z m -38.205,16.204 h 8.083 c 3.591,0 6.653,1.266 9.183,3.796 2.531,2.558 3.796,5.62 3.796,9.184 0,3.564 -1.265,6.626 -3.796,9.184 -2.53,2.531 -5.592,3.796 -9.183,3.796 h -8.083 z m -16.244,-11.346 v 20.734 l -2.98,3.021 c -0.381,0.381 -0.381,0.761 0,1.142 l 2.98,3.021 v 20.735 l -3.469,3.469 c -0.245,0.271 -0.3,0.571 -0.163,0.898 0.135,0.326 0.38,0.49 0.734,0.49 h 27.225 c 7.428,0 13.918,-2.477 19.469,-7.429 5.496,-4.925 8.666,-11.021 9.51,-18.285 l 2.898,-2.899 c 0.381,-0.381 0.381,-0.761 0,-1.142 l -2.898,-2.858 c -0.844,-7.292 -4.014,-13.401 -9.51,-18.326 -5.551,-4.953 -12.041,-7.429 -19.469,-7.429 h -27.225 c -0.354,0 -0.599,0.164 -0.734,0.491 -0.137,0.352 -0.082,0.652 0.163,0.897 z m -28.816,0 v 20.734 l -2.981,3.021 c -0.38,0.381 -0.38,0.761 0,1.142 l 2.981,3.021 v 20.735 l -3.47,3.469 c -0.245,0.271 -0.3,0.571 -0.163,0.898 0.136,0.326 0.381,0.49 0.735,0.49 h 22.041 c 0.353,0 0.598,-0.164 0.734,-0.49 0.136,-0.327 0.082,-0.627 -0.163,-0.898 l -3.47,-3.469 v -20.735 l 2.981,-3.021 c 0.379,-0.381 0.379,-0.761 0,-1.142 l -2.981,-3.021 v -20.734 l 3.47,-3.47 c 0.245,-0.245 0.299,-0.545 0.163,-0.897 -0.136,-0.327 -0.381,-0.491 -0.734,-0.491 h -22.041 c -0.354,0 -0.599,0.164 -0.735,0.491 -0.137,0.352 -0.082,0.652 0.163,0.897 z m -42.776,25.959 h 12.164 c 1.55,0 2.883,0.557 4,1.674 1.115,1.088 1.672,2.42 1.672,4 0,1.55 -0.557,2.883 -1.672,4 -1.117,1.115 -2.45,1.673 -4,1.673 h -12.164 z m -16.246,-25.959 v 20.734 l -2.979,3.021 c -0.381,0.381 -0.381,0.761 0,1.142 l 2.979,3.021 v 20.735 l -3.469,3.469 c -0.245,0.271 -0.3,0.571 -0.163,0.898 0.136,0.326 0.381,0.49 0.735,0.49 h 31.062 c 6.067,0 11.265,-2.122 15.591,-6.368 4.327,-4.245 6.503,-9.387 6.531,-15.428 0,-3.918 -0.966,-7.565 -2.898,-10.939 -1.878,-3.265 -4.422,-5.891 -7.633,-7.878 l 9.796,-16.53 c 0.163,-0.272 0.163,-0.545 0,-0.816 -0.137,-0.273 -0.367,-0.409 -0.693,-0.409 h -17.429 l -0.123,0.246 v -0.246 h -2.897 c -0.382,0 -0.64,0.164 -0.776,0.491 -0.137,0.352 -0.068,0.652 0.204,0.897 l 1.714,1.755 -6.775,11.47 h -6.531 v -9.755 l 3.469,-3.47 c 0.245,-0.245 0.299,-0.545 0.163,-0.897 -0.135,-0.327 -0.381,-0.491 -0.734,-0.491 h -22.041 c -0.354,0 -0.599,0.164 -0.735,0.491 -0.137,0.352 -0.082,0.652 0.163,0.897 z m -59.021,0 v 21.101 l -2.652,2.654 c -0.382,0.381 -0.382,0.761 0,1.142 l 2.652,2.654 v 21.102 l -3.469,3.469 c -0.245,0.271 -0.3,0.571 -0.163,0.898 0.136,0.326 0.381,0.49 0.735,0.49 h 53.184 v -19.102 c 0,-0.382 -0.163,-0.64 -0.49,-0.775 -0.354,-0.137 -0.654,-0.069 -0.898,0.204 l -3.469,3.469 h -29.184 v -6.49 h 19.428 l 2.327,2.326 c 0.163,0.164 0.367,0.204 0.612,0.122 0.218,-0.108 0.326,-0.285 0.326,-0.53 v -16.816 c 0,-0.245 -0.108,-0.422 -0.326,-0.53 -0.245,-0.082 -0.449,-0.042 -0.612,0.122 l -2.327,2.327 h -19.428 v -17.837 l 3.469,-3.47 c 0.245,-0.245 0.299,-0.545 0.163,-0.897 -0.136,-0.327 -0.381,-0.491 -0.735,-0.491 h -22.04 c -0.354,0 -0.599,0.164 -0.735,0.491 -0.137,0.352 -0.082,0.652 0.163,0.897 z"
             style="fill:#ffffff;fill-opacity:1;fill-rule:nonzero;stroke:none"
             id="path303" />
        </g>
        <g
           id="g305"
           transform="translate(559.5205,261.3496)">
          <path
             d="m 0,0 -12.218,-1.775 8.841,-8.619 -2.087,-12.168 10.928,5.746 10.929,-5.746 -2.088,12.168 8.841,8.619 L 10.928,0 5.464,11.071 Z m -56.743,-40.299 -15.995,-2.324 11.574,-11.282 -2.733,-15.931 14.307,7.522 14.307,-7.522 -2.732,15.931 11.575,11.282 -15.997,2.324 -7.153,14.494 z m -70.903,-16.997 -19.772,-2.873 14.308,-13.946 -3.378,-19.694 17.685,9.298 17.686,-9.298 -3.378,19.694 14.307,13.946 -19.772,2.873 -8.843,17.917 z m -89.915,10.13 -23.55,-3.422 17.041,-16.611 -4.023,-23.455 21.064,11.074 21.064,-11.074 -4.023,23.455 17.041,16.611 -23.55,3.422 -10.532,21.34 z m -82.068,54.27 -27.328,-3.97 19.774,-19.276 -4.668,-27.216 24.443,12.85 24.442,-12.85 -4.668,27.216 19.775,19.276 -27.328,3.97 -12.221,24.764 z m -57.72,87.37 -31.105,-4.521 22.508,-21.939 -5.313,-30.979 27.821,14.626 27.821,-14.626 -5.314,30.979 22.508,21.939 -31.105,4.521 -13.91,28.185 z m 30.698,198.3 -12.218,-1.776 8.841,-8.618 -2.087,-12.168 10.928,5.745 10.928,-5.745 -2.087,12.168 8.841,8.618 -12.218,1.776 -5.464,11.071 z m 55.238,45.45 -15.995,-2.324 11.574,-11.282 -2.732,-15.931 14.306,7.521 14.307,-7.521 -2.732,15.931 11.574,11.282 -15.995,2.324 -7.154,14.494 z m 74.434,21.734 -19.772,-2.872 14.308,-13.947 -3.378,-19.693 17.685,9.298 17.685,-9.298 -3.377,19.693 14.307,13.947 -19.772,2.872 -8.843,17.918 z m 78.37,-9.926 -23.55,-3.422 17.041,-16.61 -4.023,-23.456 21.064,11.074 21.064,-11.074 -4.023,23.456 17.041,16.61 -23.55,3.422 -10.532,21.341 z m 78.123,-48.053 -27.328,-3.971 19.775,-19.276 -4.668,-27.216 24.442,12.85 24.443,-12.85 -4.668,27.216 19.774,19.276 -27.328,3.971 -12.221,24.763 z m 57.237,-66.58 13.91,-28.186 31.105,-4.52 -22.507,-21.939 5.312,-30.98 -27.82,14.627 -27.821,-14.627 5.313,30.98 -22.508,21.939 31.105,4.52 z"
             style="fill:#ed1c24;fill-opacity:1;fill-rule:nonzero;stroke:none"
             id="path307" />
        </g>
        <g
           id="g309"
           transform="translate(228.811,488.4395)">
          <path
             d="m 0,0 h 276.101 c 1.101,-1.462 2.182,-2.94 3.234,-4.442 H -3.27 C -2.203,-2.94 -1.11,-1.462 0,0 M 5.259,6.56 H 270.87 C 272.124,5.065 273.349,3.543 274.549,2 H 1.562 c 1.209,1.543 2.44,3.065 3.697,4.56 m 5.806,6.561 h 253.997 c 1.396,-1.495 2.769,-3.012 4.109,-4.561 L 6.96,8.56 c 1.342,1.549 2.713,3.066 4.105,4.561 m 6.435,6.56 h 241.089 c 1.558,-1.491 3.092,-3.008 4.591,-4.56 H 12.939 c 1.493,1.552 3.016,3.069 4.561,4.56 m 7.19,6.561 h 226.635 c 1.744,-1.483 3.451,-3.007 5.133,-4.561 H 19.613 c 1.666,1.554 3.355,3.078 5.077,4.561 m 8.111,6.56 h 210.294 c 1.974,-1.476 3.909,-3 5.817,-4.56 H 27.071 c 1.881,1.56 3.788,3.084 5.73,4.56 m 9.263,6.56 H 233.66 c 2.269,-1.47 4.505,-2.987 6.699,-4.56 H 35.49 c 2.156,1.573 4.35,3.09 6.574,4.56 m 10.748,6.56 h 169.864 c 2.656,-1.453 5.271,-2.972 7.842,-4.56 H 45.142 c 2.518,1.588 5.076,3.107 7.67,4.56 M 82.543,59.043 H 192.16 c 4.231,-1.367 8.401,-2.888 12.5,-4.56 H 70.383 c 3.991,1.672 8.046,3.193 12.16,4.56 m 46.243,8.561 c 2.575,0.116 5.157,0.194 7.749,0.194 2.672,0 5.332,-0.078 7.986,-0.194 z m -19.48,-2 h 55.293 c 7.095,-1.11 14.083,-2.637 20.929,-4.561 h -96.54 c 6.65,1.924 13.433,3.451 20.318,4.561 M 65.796,52.483 h 143.573 c 3.226,-1.426 6.403,-2.948 9.529,-4.561 H 56.502 c 3.052,1.613 6.15,3.135 9.294,4.561 m -1.523,-228.09 24.999,74.604 h 316.584 v 3 H 87.114 l -27.01,-80.604 c 0,0 10.117,-15.616 30.405,-32.05 v -0.288 h 0.357 c 11.641,-9.381 26.592,-18.996 44.871,-26.106 v -0.136 h 0.342 c 6.466,-2.499 13.343,-4.684 20.639,-6.433 v -0.082 l 0.362,-0.001 c 11.846,-2.811 24.778,-4.477 38.804,-4.477 12.668,0 25.142,1.505 37.208,4.368 l 1.441,-0.002 v 0.337 c 37.775,9.328 71.417,32.145 94.096,64.87 h 80.98 c -36.497,-96.184 -129.596,-164.74 -238.42,-164.74 -140.557,0 -254.908,114.351 -254.908,254.907 0,0.974 0.027,1.94 0.037,2.911 h 339.523 l 27.369,81.087 c 0,0 -48.434,75.24 -146.675,75.24 -25.789,0 -50.841,-5.728 -73.578,-16.315 H 62.813 V 54.415 C 35.151,41.505 10.928,21.392 -6.963,-4.448 l -0.676,-0.854 v -2.14 H 279.03 L 253.687,-82.529 H -83.644 c 3.153,137.837 116.252,248.997 254.833,248.997 140.557,0 254.907,-114.351 254.907,-254.908 0,-30.601 -5.425,-59.959 -15.355,-87.167 z m 257.643,-7.097 H 67.17 c -1.019,1.347 -2.019,2.712 -2.993,4.097 h 260.764 c -0.987,-1.385 -1.998,-2.75 -3.025,-4.097 m -5.287,-6.56 H 72.428 c -1.264,1.492 -2.495,3.016 -3.703,4.56 h 251.624 c -1.217,-1.544 -2.453,-3.068 -3.72,-4.56 m -5.903,-6.56 H 78.334 c -1.42,1.49 -2.811,3.01 -4.171,4.56 h 240.728 c -1.361,-1.55 -2.749,-3.07 -4.165,-4.56 m -6.612,-6.561 H 84.985 c -1.602,1.486 -3.173,3.006 -4.711,4.561 h 228.519 c -1.53,-1.555 -3.09,-3.075 -4.679,-4.561 m -7.461,-6.56 H 92.526 c -1.817,1.478 -3.598,3 -5.346,4.56 h 214.758 c -1.73,-1.56 -3.492,-3.082 -5.285,-4.56 m -8.517,-6.561 H 101.169 c -2.082,1.467 -4.119,2.994 -6.126,4.561 h 199.125 c -1.978,-1.567 -3.985,-3.094 -6.032,-4.561 m -9.941,-6.56 H 111.298 c -2.444,1.458 -4.851,2.975 -7.211,4.56 h 181.182 c -2.317,-1.585 -4.678,-3.102 -7.074,-4.56 m -11.899,-6.56 H 123.463 c -2.953,1.434 -5.859,2.954 -8.712,4.56 h 160.063 c -2.793,-1.606 -5.633,-3.126 -8.518,-4.56 m -15.091,-6.561 H 138.938 c -3.797,1.381 -7.527,2.911 -11.195,4.561 h 134.376 c -3.58,-1.65 -7.217,-3.18 -10.914,-4.561 m -34.504,-8.601 c -6.855,-0.91 -13.804,-1.392 -20.817,-1.392 -7.383,0 -14.699,0.503 -21.91,1.453 z m 11.651,1.983 -66.41,0.095 c -5.809,1.202 -11.521,2.724 -17.122,4.523 h 100.659 c -5.604,-1.85 -11.318,-3.399 -17.127,-4.618 M 353.557,93.929 c -48.712,48.712 -113.478,75.539 -182.368,75.539 -68.89,0 -133.656,-26.827 -182.368,-75.539 -48.713,-48.713 -75.54,-113.479 -75.54,-182.369 0,-68.889 26.827,-133.656 75.54,-182.368 48.712,-48.712 113.478,-75.539 182.368,-75.539 68.89,0 133.656,26.827 182.368,75.539 48.712,48.712 75.539,113.479 75.539,182.368 0,68.89 -26.827,133.656 -75.539,182.369"
             style="fill:#ffffff;fill-opacity:1;fill-rule:nonzero;stroke:none"
             id="path311" />
        </g>
      </g>
    </g>
  </g>
</svg>
